<?xml version="1.0" encoding="UTF-8"?>
<svg version="1.1" xmlns="http://www.w3.org/2000/svg" width="1024" height="1024">
<path d="M0 0 C337.92 0 675.84 0 1024 0 C1024 337.92 1024 675.84 1024 1024 C686.08 1024 348.16 1024 0 1024 C0 686.08 0 348.16 0 0 Z " fill="#A63129" transform="translate(0,0)"/>
<path d="M0 0 C4.29398746 1.32261217 8.12108791 2.9822197 12.0859375 5.08984375 C13.25060547 5.7034375 14.41527344 6.31703125 15.61523438 6.94921875 C16.22713623 7.27325684 16.83903809 7.59729492 17.46948242 7.93115234 C38.95330255 19.27725184 60.93919629 28.97120874 83.53710938 37.875 C84.70619339 38.339916 84.70619339 38.339916 85.89889526 38.81422424 C87.36089191 39.39550702 88.82505553 39.97138254 90.29177856 40.54063416 C98.9578431 43.99971016 106.73625299 49.45524385 111 58 C124.55996195 91.5542588 124.67158225 134.22088593 128.5625 170 C128.75994369 171.80711022 128.95740278 173.61421876 129.15487671 175.42132568 C132.25098578 203.82159688 134.94044516 232.20868794 136.78570557 260.7210083 C137.01066665 264.16321401 137.24351753 267.60481886 137.47802734 271.04638672 C142.24502636 341.20963222 146.55941521 411.65138549 146 482 C139.85179738 482.14570302 133.70352622 482.28792013 127.55517578 482.42724609 C125.47442582 482.47484808 123.39369543 482.52331596 121.31298828 482.57275391 C106.87237323 482.91508102 92.44462911 483.06419043 78 483 C76.22232901 463.38957189 74.99908933 443.75749354 73.84439087 424.10290146 C73.68494639 421.39411706 73.52426405 418.68540847 73.36328125 415.97671509 C71.54755542 385.39243812 69.9231632 354.79971711 68.34614182 324.20234299 C66.85664633 295.32637731 65.24434186 266.46148469 63.41500854 237.60492325 C63.25130653 235.0206257 63.08859887 232.43626696 62.92602539 229.85189819 C62.67359888 225.84744648 62.41767109 221.84323435 62.15857697 217.8392086 C62.06476884 216.38619771 61.97174042 214.93313622 61.87957001 213.48002052 C61.75350636 211.49952498 61.62342706 209.51928627 61.49316406 207.5390625 C61.42164124 206.43771973 61.35011841 205.33637695 61.27642822 204.20166016 C60.98068725 200.77631498 60.51581377 197.39858666 60 194 C55.50344856 221.58530682 52.14566438 249.13130324 50 277 C49.91379395 278.10859375 49.82758789 279.2171875 49.73876953 280.359375 C49.28637482 286.57356418 49.08131473 292.77054405 49 299 C48.99011047 299.67814758 48.98022095 300.35629517 48.97003174 301.05499268 C48.6289441 325.0903019 49.06678049 348.98229301 50.8482666 372.95562744 C50.99405487 374.91989857 51.13530758 376.88450473 51.27636719 378.84912109 C52.86625187 400.48549912 55.21587655 422.05334776 57.5 443.625 C57.5751672 444.33573292 57.6503344 445.04646584 57.72777939 445.77873611 C59.40929402 461.66874037 61.12498475 477.5524214 63.1114502 493.40786743 C63.2287146 494.35527802 63.345979 495.3026886 63.46679688 496.27880859 C63.57020386 497.09916595 63.67361084 497.91952332 63.78015137 498.76473999 C64 501 64 501 64 505 C53.45791286 508.38996303 43.0902819 510.24165286 32.125 511.625 C30.48118797 511.83868431 28.83738929 512.05247127 27.19360352 512.26635742 C-36.32401417 520.42248076 -36.32401417 520.42248076 -57.58984375 504 C-77.81191757 486.62115615 -94.62273298 461.63654417 -98 435 C-98.08788821 432.74960618 -98.13040854 430.49710208 -98.13371277 428.24499512 C-98.13597833 427.60283538 -98.13824388 426.96067565 -98.14057809 426.29905653 C-98.14686079 424.1674512 -98.14609246 422.03591038 -98.14526367 419.90429688 C-98.14825866 418.3678428 -98.15166197 416.83138948 -98.15544128 415.29493713 C-98.16424877 411.13591933 -98.16661797 406.97692212 -98.16725707 402.81789589 C-98.16796917 400.21721306 -98.17010647 397.61653542 -98.17275429 395.01585388 C-98.18199541 385.93683542 -98.18609053 376.85783161 -98.18530273 367.77880859 C-98.18470157 359.32467707 -98.19526413 350.87060928 -98.2110464 342.41649389 C-98.22412975 335.14835991 -98.22948633 327.88024675 -98.22884732 320.61210108 C-98.22859267 316.27534904 -98.23142647 311.93865373 -98.24202538 307.60191345 C-98.25172028 303.52414892 -98.25177601 299.44649522 -98.24450874 295.36872673 C-98.24346479 293.87520625 -98.24581456 292.38167881 -98.2518692 290.88817024 C-98.25961879 288.84365251 -98.25492518 286.79951479 -98.24723816 284.75500488 C-98.24778293 283.61277718 -98.24832769 282.47054947 -98.24888897 281.2937088 C-97.73522947 274.49612017 -95.38284202 269.52139887 -91.515625 264.03515625 C-90.60813806 262.71150176 -89.70125523 261.38743293 -88.79492188 260.06298828 C-88.33045654 259.39019836 -87.86599121 258.71740845 -87.38745117 258.02423096 C-85.18771226 254.81490748 -83.05505414 251.56237927 -80.921875 248.30859375 C-80.06990915 247.01318126 -79.21793972 245.71777112 -78.3659668 244.42236328 C-69.12779352 230.35454577 -59.93209262 216.26502522 -51 202 C-50.37851074 201.00935547 -49.75702148 200.01871094 -49.11669922 198.99804688 C-38.99507023 182.82558076 -29.33520014 166.41570059 -20 149.77996826 C-19.00247754 148.00440994 -18.00164437 146.23075531 -17 144.45751953 C-6.36468987 125.61162207 3.46026835 106.42135773 13 87 C13.33 86.34 13.66 85.68 14 85 C13.3387915 84.64695801 12.67758301 84.29391602 11.99633789 83.93017578 C9.01523308 82.33427054 6.03884394 80.72976533 3.0625 79.125 C2.02158203 78.56941406 0.98066406 78.01382813 -0.09179688 77.44140625 C-1.08115234 76.90644531 -2.07050781 76.37148438 -3.08984375 75.8203125 C-4.00628662 75.32805176 -4.92272949 74.83579102 -5.86694336 74.32861328 C-8 73 -8 73 -9 71 C-5.23242503 69.49172203 -1.46043651 67.99481006 2.3125 66.5 C3.9202832 65.85611328 3.9202832 65.85611328 5.56054688 65.19921875 C6.58857422 64.79316406 7.61660156 64.38710938 8.67578125 63.96875 C10.0975769 63.40317383 10.0975769 63.40317383 11.5480957 62.82617188 C14 62 14 62 17 62 C16.53944214 60.64189209 16.53944214 60.64189209 16.06958008 59.25634766 C0.30785465 12.70600095 0.30785465 12.70600095 0 0 Z " fill="#F8E9D2" transform="translate(605,213)"/>
<path d="M0 0 C0.99 0.495 0.99 0.495 2 1 C-1.96764415 21.88233766 -8.26558936 41.87305707 -15 62 C-14.22398437 62.08121094 -13.44796875 62.16242188 -12.6484375 62.24609375 C-7.71375203 63.26578786 -3.27147588 65.14359163 1.375 67.0625 C2.30183594 67.43955078 3.22867188 67.81660156 4.18359375 68.20507812 C6.45802479 69.13126396 8.72999667 70.06302668 11 71 C7.32531118 75.32078795 2.66703284 77.60709485 -2.25 80.25 C-3.09046875 80.70890625 -3.9309375 81.1678125 -4.796875 81.640625 C-6.86128945 82.76666925 -8.92896314 83.88619714 -11 85 C-9.272166 91.01692781 -6.43353512 96.43359004 -3.625 102 C-3.09261719 103.05944824 -2.56023437 104.11889648 -2.01171875 105.21044922 C2.95492227 115.02832989 8.19493104 124.68287019 13.52197266 134.30859375 C14.97584454 136.95601425 16.40403461 139.61562804 17.82421875 142.28125 C25.43060548 156.5110804 33.72570479 170.25976185 42.16894531 184.00146484 C44.00327236 187.00535881 45.79766807 190.02925397 47.57519531 193.06689453 C55.80130814 207.09034207 65.04795827 220.59060156 74.5 233.8125 C75.63501953 235.40771484 75.63501953 235.40771484 76.79296875 237.03515625 C78.2935483 239.05097904 79.86272732 241.01712436 81.48828125 242.93359375 C87.03802459 249.65857686 87.03802459 249.65857686 86.9296875 253.48046875 C86.13948924 256.09644087 85.09729778 258.49831085 84 261 C83.41869082 263.05167947 82.87762471 265.11513965 82.375 267.1875 C82.13523437 268.12980469 81.89546875 269.07210938 81.6484375 270.04296875 C79.88237924 278.09661995 79.84506947 285.91618655 79.83886719 294.13916016 C79.83423229 295.5740827 79.82920673 297.00900403 79.82382202 298.44392395 C79.81074986 302.33115869 79.80426176 306.21837618 79.79981136 310.10562944 C79.79686871 312.54427218 79.79276145 314.98291034 79.78830719 317.42155075 C79.77463812 325.0798136 79.76497186 332.73806582 79.7611053 340.39634001 C79.75664338 349.18192658 79.73918041 357.96735611 79.7101047 366.752895 C79.68832259 373.57624097 79.6783921 380.39954334 79.67706418 387.22292364 C79.67602672 391.28182176 79.67035081 395.34057221 79.65224457 399.39943314 C79.05464072 430.09418034 79.05464072 430.09418034 86.328125 459.625 C87.33353665 463.17901327 86.79541128 465.46583805 85.10205078 468.73193359 C83.92928138 470.75178941 82.69862724 472.72161836 81.4375 474.6875 C80.98640869 475.39793457 80.53531738 476.10836914 80.07055664 476.84033203 C76.3987296 482.54284471 72.43005989 487.86078032 68 493 C67.32710937 493.82886719 66.65421875 494.65773438 65.9609375 495.51171875 C57.03892945 506.10457558 45.93824023 514.06829646 32 516 C5.4300847 517.49204708 -38.09634737 516.95182631 -62 505 C-62.23280576 499.38679446 -61.9401286 494.03885511 -61.08203125 488.4831543 C-60.04408601 481.46801078 -59.2624976 474.45039279 -58.5625 467.39453125 C-58.30374744 464.83931878 -58.04462307 462.28414394 -57.78515625 459.72900391 C-57.65512207 458.44270081 -57.52508789 457.15639771 -57.39111328 455.83111572 C-56.78026037 449.8475598 -56.1393319 443.8672859 -55.5 437.88671875 C-52.53272098 409.95336801 -49.7424704 382.03919508 -48 354 C-47.92942383 352.87883789 -47.85884766 351.75767578 -47.78613281 350.60253906 C-46.23284043 324.82117287 -46.67630104 299.1096651 -48.73535156 273.375 C-48.96889103 270.39672551 -49.17488987 267.41865647 -49.3671875 264.4375 C-50.36015178 249.99677449 -52.22745853 235.66572387 -54.0625 221.3125 C-54.19837524 220.24951691 -54.33425049 219.18653381 -54.47424316 218.09133911 C-54.86654697 215.03575522 -55.26237254 211.98065622 -55.66015625 208.92578125 C-55.77990311 207.99969055 -55.89964996 207.07359985 -56.02302551 206.1194458 C-56.13667953 205.25543152 -56.25033356 204.39141724 -56.36743164 203.5012207 C-56.46576797 202.74976273 -56.56410431 201.99830475 -56.66542053 201.22407532 C-57.03053981 198.7969904 -57.50130538 196.40287947 -58 194 C-60.99073884 223.68092423 -62.60114664 253.44122021 -64.27606201 283.21972656 C-64.64471244 289.751541 -65.02006198 296.2829702 -65.39453125 302.81445312 C-66.68904618 325.4451263 -67.95507918 348.07716252 -69.1750946 370.7119751 C-70.49947534 395.2827134 -71.93762161 419.84274567 -73.52380371 444.39794922 C-73.8075338 448.7996799 -74.08815897 453.2016088 -74.36914062 457.60351562 C-74.90993207 466.0691935 -75.45379734 474.53466952 -76 483 C-91.09048317 483.07606516 -106.16365864 482.83945407 -121.25 482.5 C-123.47134987 482.45162509 -125.69270403 482.40344696 -127.9140625 482.35546875 C-133.27609309 482.23923814 -138.63806633 482.12061491 -144 482 C-144.02549467 476.30135393 -144.04321655 470.60274382 -144.05493164 464.90405273 C-144.05983563 462.98184631 -144.06655671 461.05964332 -144.07543945 459.13745117 C-144.22362798 426.14371054 -142.4506448 393.19312936 -140.8125 360.25 C-140.7589032 359.16933762 -140.7053064 358.08867523 -140.65008545 356.9752655 C-137.73394423 298.32268442 -134.31113995 239.62992136 -127.59570312 181.27197266 C-126.97520332 175.84562863 -126.41549166 170.41372496 -125.859375 164.98046875 C-123.70359855 144.14072647 -121.03280672 123.40917415 -117.9375 102.6875 C-117.77164398 101.56356842 -117.60578796 100.43963684 -117.43490601 99.28164673 C-111.26640676 57.72803499 -111.26640676 57.72803499 -100.13671875 46.5703125 C-93.2065767 41.47722821 -84.68684936 38.84181513 -76.72393799 35.7727356 C-38.31723228 20.98704574 -38.31723228 20.98704574 -2.28027344 1.25195312 C-1.5277832 0.83880859 -0.77529297 0.42566406 0 0 Z " fill="#F8E8D1" transform="translate(417,213)"/>
<path d="M0 0 C3.08035556 -0.00968056 6.16003512 -0.04078483 9.24023438 -0.07226562 C21.77271856 -0.13849693 33.68998674 0.78025645 45.98242188 3.24023438 C47.201875 3.48386719 48.42132812 3.7275 49.67773438 3.97851562 C60.88754159 6.36389236 67.55916882 11.54840303 73.80273438 20.99414062 C75.00546417 22.88378514 76.19534625 24.78169997 77.36914062 26.68945312 C78.8625892 29.22492703 78.8625892 29.22492703 80.68945312 31.07226562 C84.29938751 37.12517675 81.24017002 45.68156912 79.66992188 52.05273438 C79.40775879 53.12313965 79.1455957 54.19354492 78.87548828 55.29638672 C73.37436532 77.05795586 66.33644018 98.29064808 57.96533203 119.10742188 C51.68907318 134.9326363 46.66074636 151.20577861 41.47631836 167.41308594 C37.05281721 181.19769159 32.30473693 194.77589437 26.98242188 208.24023438 C26.65242187 208.24023438 26.32242188 208.24023438 25.98242188 208.24023438 C25.92296387 206.97469727 25.92296387 206.97469727 25.86230469 205.68359375 C24.67680672 181.54135341 22.26233816 158.61935469 15.26879883 135.34594727 C14.97320068 134.35844482 14.67760254 133.37094238 14.37304688 132.35351562 C14.10524414 131.48509033 13.83744141 130.61666504 13.56152344 129.72192383 C12.95227886 127.1110591 12.78097705 124.91135879 12.98242188 122.24023438 C14.37304688 120.24804688 14.37304688 120.24804688 16.23242188 118.36523438 C19.51590741 114.86196178 21.76879743 111.4903933 23.98242188 107.24023438 C29.13437832 111.40564597 33.4497255 115.92411246 37.82617188 120.89257812 C40.36701514 123.65896726 43.01021947 125.95392483 45.98242188 128.24023438 C39.18125122 109.53701507 25.75674882 88.43574369 9.98242188 76.24023438 C10.52543945 75.95414307 11.06845703 75.66805176 11.62792969 75.37329102 C22.36893534 69.68119439 32.58906525 64.01609357 41.98242188 56.24023438 C42.72621094 55.64726562 43.47 55.05429688 44.23632812 54.44335938 C53.54790636 46.73966277 60.58068927 37.32747086 62.29492188 25.22070312 C62.15632446 23.09348128 62.15632446 23.09348128 60.34179688 21.57617188 C45.46181844 13.15075362 22.65473157 14.86733572 6.13232422 14.86962891 C2.6482542 14.86528528 -0.83451449 14.82893168 -4.31835938 14.79101562 C-16.1527244 14.73150238 -27.65743857 15.3009768 -39.36914062 17.07617188 C-40.99364639 17.32193466 -40.99364639 17.32193466 -42.65097046 17.57266235 C-47.95691547 18.4605533 -52.38912926 19.45998194 -57.01757812 22.24023438 C-57.73044009 31.0797228 -55.46335382 36.84803673 -49.99804688 43.81445312 C-47.75156596 46.38354601 -45.43057391 48.82723859 -43.01757812 51.24023438 C-42.33953125 51.91828125 -41.66148437 52.59632813 -40.96289062 53.29492188 C-30.77065184 62.87178021 -18.41307347 69.92752005 -6.01757812 76.24023438 C-6.69820313 76.92085938 -7.37882812 77.60148437 -8.08007812 78.30273438 C-8.53624512 78.76220459 -8.99241211 79.2216748 -9.46240234 79.69506836 C-10.52902999 80.75483074 -11.60965308 81.80063701 -12.70166016 82.83422852 C-17.11684437 87.07376013 -20.56639502 91.55031243 -23.89257812 96.67773438 C-24.6591272 97.84429565 -24.6591272 97.84429565 -25.44116211 99.03442383 C-31.71482767 108.69306918 -37.62310437 118.57576381 -42.01757812 129.24023438 C-39.18438884 126.43174761 -36.35448191 123.61999938 -33.52758789 120.80517578 C-32.56527117 119.84789057 -31.60205921 118.89150444 -30.63793945 117.93603516 C-29.25302367 116.5632365 -27.87157821 115.18693966 -26.49023438 113.81054688 C-25.65758057 112.98312988 -24.82492676 112.15571289 -23.96704102 111.30322266 C-21.97317272 109.39248244 -21.97317272 109.39248244 -21.01757812 107.24023438 C-20.35757813 107.24023438 -19.69757813 107.24023438 -19.01757812 107.24023438 C-18.24414062 108.97273438 -18.24414062 108.97273438 -17.45507812 110.74023438 C-15.79632568 114.24493864 -14.09328837 116.03212488 -11.12304688 118.46679688 C-9.25317383 120.56738281 -9.25317383 120.56738281 -8.01757812 123.24023438 C-8.33533536 128.32025439 -9.65944034 132.92451386 -11.16525269 137.76959229 C-12.14712098 140.93614122 -13.02984824 144.12769234 -13.91885376 147.32131958 C-14.34344703 148.83334788 -14.77636621 150.3430741 -15.21932983 151.849823 C-20.6989484 170.52896474 -21.06003699 189.92093945 -22.01757812 209.24023438 C-23.89124156 206.42973922 -24.88570449 204.13944176 -26.01367188 200.98242188 C-26.40200195 199.89815918 -26.79033203 198.81389648 -27.19042969 197.69677734 C-27.60776367 196.51486816 -28.02509766 195.33295898 -28.45507812 194.11523438 C-28.89174805 192.88562988 -29.32841797 191.65602539 -29.77832031 190.38916016 C-35.66631505 173.74168303 -41.23722966 156.97493961 -46.65820312 140.16992188 C-49.16172109 132.44898833 -51.91166726 124.86778099 -54.84326172 117.29736328 C-81.17303297 49.22989499 -81.17303297 49.22989499 -78.01757812 33.24023438 C-76.79063965 31.10623782 -75.3742203 29.33150218 -73.79101562 27.44726562 C-71.79240924 24.96001319 -70.21727221 22.35253399 -68.58007812 19.61523438 C-62.49491878 10.0091859 -55.43482857 6.08425668 -44.49804688 3.36523438 C-29.73544046 0.20290468 -15.04196697 0.0284706 0 0 Z " fill="#F8E8D3" transform="translate(510.017578125,166.759765625)"/>
<path d="M0 0 C9.0151486 6.56586109 12.93141109 13.71139993 15.63671875 24.48828125 C16.16306105 29.0063023 16.19875662 33.44400732 16.13671875 37.98828125 C16.15992188 39.68791016 16.15992188 39.68791016 16.18359375 41.421875 C16.12229238 54.80089835 12.22963094 64.74204552 2.94921875 74.23828125 C-5.97233771 81.00398602 -16.6358924 81.54697622 -27.36328125 80.48828125 C-36.948528 78.42019165 -43.32027887 73.96675802 -48.61328125 65.80078125 C-53.85354622 57.27799074 -54.85661525 47.71463236 -54.73828125 37.92578125 C-54.74988281 36.96220703 -54.76148438 35.99863281 -54.7734375 35.00585938 C-54.72932197 24.10197112 -51.78964823 13.53787454 -44.390625 5.2890625 C-32.6310629 -5.93126042 -14.12948922 -9.0382022 0 0 Z " fill="#F7E7D1" transform="translate(637.36328125,768.51171875)"/>
<path d="M0 0 C9.04623428 6.13962636 13.722807 14.45803584 16 25 C16.42767514 29.27984796 16.47700749 33.51370857 16.4375 37.8125 C16.42992676 38.96089355 16.42235352 40.10928711 16.41455078 41.29248047 C16.18754735 52.9591315 14.53435892 63.3670919 6 72 C-2.53881535 79.90697912 -10.86634929 81.55670762 -22.34375 81.28125 C-30.86683563 80.62562803 -37.92556652 78.17525395 -44 72 C-52.48044541 61.47607377 -54.22673867 51.03291822 -54.375 37.875 C-54.38909912 36.95678467 -54.40319824 36.03856934 -54.41772461 35.0925293 C-54.3371041 23.70054509 -50.81376659 13.53892457 -43.18359375 4.95703125 C-31.66877898 -5.95296497 -13.88657034 -7.66701522 0 0 Z " fill="#F7E7D2" transform="translate(360,768)"/>
<path d="M0 0 C7.51916043 5.9104939 12.08703427 15.61281986 13.25 24.9375 C14.33779112 41.55043228 14.06266273 57.52628319 2.69140625 70.75 C-4.89925082 78.03120582 -14.41836753 79.54217836 -24.5402832 79.40795898 C-33.47840167 79.03232361 -40.37957885 76.23353494 -46.9296875 70.0546875 C-58.28114325 56.85192137 -57.87418452 40.38713002 -56.75 23.9375 C-55.3560094 13.88244918 -49.5488549 5.50028455 -41.703125 -0.7421875 C-28.85751711 -9.42581844 -12.88238078 -7.80923082 0 0 Z " fill="#F7E7D1" transform="translate(279.75,770.0625)"/>
<path d="M0 0 C42.79887218 0 42.79887218 0 52.953125 9.578125 C62.99188156 21.45604307 63.03284787 35.2530786 62 50 C60.41790806 60.48455347 55.70547981 68.84076097 47.2890625 75.31640625 C32.95236443 85.11802636 16.88143844 82 0 82 C0 54.94 0 27.88 0 0 Z " fill="#F6E5CF" transform="translate(799,766)"/>
<path d="M0 0 C5.28 0 10.56 0 16 0 C16.25692627 1.22928223 16.51385254 2.45856445 16.77856445 3.72509766 C17.74549646 8.35098534 18.71289327 12.97677572 19.68041992 17.60253906 C20.09655942 19.59242202 20.51257821 21.58233022 20.9284668 23.57226562 C22.28211382 30.04892093 23.63915324 36.52485367 25 43 C25.15885681 43.75728394 25.31771362 44.51456787 25.48138428 45.2947998 C25.89578772 47.26725809 26.31301254 49.23912305 26.73046875 51.2109375 C26.95500732 52.2736084 27.1795459 53.3362793 27.41088867 54.43115234 C27.97890407 57.09699663 27.97890407 57.09699663 29 60 C29.18062988 59.17201904 29.36125977 58.34403809 29.54736328 57.4909668 C31.20813073 49.8811268 32.87214193 42.27200644 34.54025269 34.66377258 C35.47642958 30.39313562 36.40965263 26.12187161 37.33999634 21.84996033 C38.01534017 18.75348439 38.6955402 15.65807494 39.375 12.5625 C39.62523926 11.40903076 39.87547852 10.25556152 40.13330078 9.06713867 C40.3651709 8.01502197 40.59704102 6.96290527 40.8359375 5.87890625 C41.13830322 4.49554077 41.13830322 4.49554077 41.44677734 3.08422852 C42 1 42 1 43 0 C45.53049402 -0.07313567 48.03304837 -0.09247527 50.5625 -0.0625 C51.62887695 -0.05573242 51.62887695 -0.05573242 52.71679688 -0.04882812 C54.47790013 -0.03700864 56.23896036 -0.01907263 58 0 C58.21615967 1.03068604 58.43231934 2.06137207 58.6550293 3.12329102 C62.70541773 22.42978892 66.76375677 41.73323992 71 61 C72.66579583 56.38272095 73.71662348 51.77135492 74.5859375 46.953125 C74.72899323 46.18305115 74.87204895 45.41297729 75.0194397 44.61956787 C75.47533052 42.16377076 75.92571744 39.70701399 76.375 37.25 C78.66261842 24.76909727 81.16433448 12.36876184 84 0 C88.95 0 93.9 0 99 0 C97.55955702 9.24078895 95.65698547 18.32499272 93.55859375 27.43359375 C93.22721899 28.88412681 92.89617575 30.33473563 92.56544495 31.78541565 C91.70251372 35.56685272 90.83553802 39.34735016 89.9675293 43.12762451 C88.91105741 47.73174458 87.85892324 52.33685743 86.80669498 56.94194889 C85.98887385 60.52115051 85.17024836 64.10016038 84.34898376 67.67857361 C84.0552034 68.96083328 83.76142303 70.24309296 83.45874023 71.56420898 C83.20051987 72.68939438 82.9422995 73.81457977 82.67625427 74.97386169 C82.08018692 77.64117532 81.53600582 80.31997089 81 83 C74.73 83 68.46 83 62 83 C57.54857589 65.07545488 53.14888846 47.20969051 50 29 C47.24935145 36.56632406 45.61746495 44.17266303 44.0625 52.0625 C41.96737649 62.46025379 39.69403181 72.74195581 37 83 C31.06 83 25.12 83 19 83 C17.50752129 78.52256386 16.28332879 74.25710032 15.21240234 69.68115234 C14.96324821 68.62145988 14.96324821 68.62145988 14.70906067 67.5403595 C14.16507569 65.22289694 13.62529813 62.90448033 13.0859375 60.5859375 C12.70777335 58.96738899 12.32948572 57.34886932 11.95108032 55.7303772 C11.16074474 52.34674546 10.37262638 48.96260636 9.5859375 45.578125 C8.57762837 41.24146825 7.56268528 36.90639461 6.54594994 32.57170677 C5.76393487 29.23357994 4.98598997 25.89451451 4.20921707 22.55516434 C3.83661726 20.95605835 3.46262082 19.35727712 3.08720016 17.75883102 C2.56351274 15.52686479 2.04545466 13.29366365 1.52880859 11.06005859 C1.23283783 9.79020111 0.93686707 8.52034363 0.63192749 7.21200562 C0 4 0 4 0 0 Z " fill="#F6E6D0" transform="translate(478,765)"/>
<path d="M0 0 C6.6 0 13.2 0 20 0 C23.81875201 9.02548733 27.42508575 18.11622988 30.93139648 27.2668457 C31.82378324 29.59189771 32.72339713 31.91407832 33.62304688 34.23632812 C34.19315209 35.72118386 34.76282985 37.20620381 35.33203125 38.69140625 C35.60070511 39.38198624 35.86937897 40.07256622 36.14619446 40.78407288 C37.24687933 43.67743725 38 45.87524901 38 49 C38.66 49 39.32 49 40 49 C40.10444931 48.45653931 40.20889862 47.91307861 40.31651306 47.35314941 C41.50019097 41.58919289 43.24698526 36.2949127 45.44140625 30.84375 C45.76914536 30.01540649 46.09688446 29.18706299 46.43455505 28.33361816 C47.12141207 26.60135981 47.81147807 24.87037063 48.50463867 23.140625 C49.56969744 20.4820338 50.62449237 17.81954193 51.67773438 15.15625 C52.34837037 13.46851625 53.01957363 11.78100777 53.69140625 10.09375 C54.16641319 8.89703674 54.16641319 8.89703674 54.65101624 7.67614746 C56.88324346 2.11675654 56.88324346 2.11675654 58 1 C63.94 1 69.88 1 76 1 C76 28.06 76 55.12 76 83 C71.38 83 66.76 83 62 83 C61.67 65.51 61.34 48.02 61 30 C59.123125 34.681875 57.24625 39.36375 55.3125 44.1875 C54.44105347 46.35928833 54.44105347 46.35928833 53.55200195 48.57495117 C50.30169626 56.69216631 47.1136583 64.82915375 44 73 C40.7 73 37.4 73 34 73 C29.49257283 63.52510094 25.47822557 53.94325045 21.625 44.1875 C19.76875 39.505625 17.9125 34.82375 16 30 C15.67 47.49 15.34 64.98 15 83 C10.05 83 5.1 83 0 83 C0 55.61 0 28.22 0 0 Z " fill="#F6E5CF" transform="translate(390,765)"/>
<path d="M0 0 C40 0 40 0 50 8 C55.65465109 16.25505463 57.35910857 23.65604491 55.5546875 33.40625 C53.9553361 39.31777669 50.68331231 44.05191736 46 48 C44.67717088 48.37284314 43.34385324 48.71199418 42 49 C42.47421387 49.85231201 42.94842773 50.70462402 43.43701172 51.58276367 C45.20301965 54.75868249 46.96511983 57.93675531 48.72607422 61.11547852 C49.48738645 62.48846129 50.24974374 63.86086515 51.01318359 65.23266602 C52.11313649 67.20956963 53.2092596 69.18855499 54.3046875 71.16796875 C54.6443454 71.77650192 54.9840033 72.3850351 55.33395386 73.01200867 C57.15383741 76.3099573 58.59166012 79.47915029 60 83 C54.06 83 48.12 83 42 83 C41.05640625 80.91816406 40.1128125 78.83632813 39.140625 76.69140625 C38.18837623 74.67694416 37.2203492 72.67082598 36.25048828 70.66479492 C35.58810974 69.27295948 34.94227154 67.87312082 34.31396484 66.46557617 C33.40346054 64.43384263 32.4358417 62.43902367 31.453125 60.44140625 C31.18695374 59.81222794 30.92078247 59.18304962 30.64654541 58.5348053 C29.67306241 56.43278849 29.67306241 56.43278849 27 54 C23.04 53.67 19.08 53.34 15 53 C15 62.9 15 72.8 15 83 C10.05 83 5.1 83 0 83 C0 55.61 0 28.22 0 0 Z " fill="#F7E6D0" transform="translate(668,765)"/>
<path d="M0 0 C22.77 0 45.54 0 69 0 C69 8.58 69 17.16 69 26 C65.49571573 28.33618951 64.06877125 28.25735167 59.92382812 28.2746582 C58.04673157 28.28895622 58.04673157 28.28895622 56.13171387 28.30354309 C54.76489229 28.30328169 53.3980707 28.30234476 52.03125 28.30078125 C50.63024773 28.30466814 49.22924663 28.3090028 47.82824707 28.31376648 C44.89278339 28.32122689 41.95743999 28.32093845 39.02197266 28.31567383 C35.25895672 28.30987471 31.49643227 28.32682112 27.73349762 28.3500185 C24.84072997 28.36474369 21.94808108 28.36562932 19.05528259 28.36250877 C17.66779099 28.36302245 16.28029281 28.36826894 14.89283752 28.37832069 C12.95398711 28.39064482 11.01503744 28.38196509 9.07617188 28.37231445 C7.4209552 28.37325859 7.4209552 28.37325859 5.7322998 28.3742218 C3 28 3 28 0 25 C0 16.75 0 8.5 0 0 Z " fill="#A62F26" transform="translate(575,569)"/>
<path d="M0 0 C1.80868813 0.00333092 1.80868813 0.00333092 3.65391541 0.00672913 C4.64899864 0.00651009 4.64899864 0.00651009 5.66418457 0.00628662 C7.86644207 0.00698571 10.06861596 0.01477787 12.27085876 0.02259827 C13.79400588 0.02446246 15.31715359 0.02588636 16.84030151 0.02688599 C20.85657903 0.03071105 24.87282059 0.04054124 28.88908386 0.05158997 C32.98443617 0.06180433 37.07979427 0.06638366 41.17515564 0.07142639 C49.21618779 0.08216352 57.25719069 0.0992398 65.29820251 0.12025452 C65.41439015 4.03667162 65.48544905 7.95264552 65.54820251 11.87025452 C65.58171814 12.98142639 65.61523376 14.09259827 65.64976501 15.23744202 C65.66910095 16.84232483 65.66910095 16.84232483 65.68882751 18.47962952 C65.72024841 19.95641174 65.72024841 19.95641174 65.75230408 21.46302795 C65.15563435 24.9545082 64.16897366 26.07644553 61.29820251 28.12025452 C58.48361206 28.61473083 58.48361206 28.61473083 55.20030212 28.60609436 C53.9690007 28.61224762 52.73769928 28.61840088 51.46908569 28.6247406 C50.12956493 28.61094522 48.7900516 28.59641128 47.45054626 28.58119202 C46.07339653 28.57880657 44.6962435 28.57790248 43.3190918 28.57841492 C40.4365138 28.57529037 37.5544344 28.55875126 34.67198181 28.53187561 C30.97743057 28.49786387 27.28342601 28.49024812 23.58873653 28.49176598 C20.74655948 28.49122216 17.90450189 28.4802538 15.06236458 28.46576309 C13.70001186 28.4594004 12.33764562 28.45545743 10.97527885 28.45397568 C9.0723725 28.44963906 7.16951698 28.43055085 5.26670837 28.41078186 C4.18401169 28.40315826 3.101315 28.39553467 1.98580933 28.38768005 C-0.70179749 28.12025452 -0.70179749 28.12025452 -3.70179749 26.12025452 C-4.0582428 23.614151 -4.0582428 23.614151 -4.02992249 20.49134827 C-4.02476624 19.37437561 -4.01960999 18.25740295 -4.01429749 17.10658264 C-3.99367249 15.93546936 -3.97304749 14.76435608 -3.95179749 13.55775452 C-3.94664124 12.38277405 -3.94148499 11.20779358 -3.93617249 9.99720764 C-3.84534818 0.1711529 -3.84534818 0.1711529 0 0 Z " fill="#A62F26" transform="translate(383.70179748535156,568.8797454833984)"/>
<path d="M0 0 C6.11713469 4.26776839 9.46789555 9.95423482 11.25 17.14453125 C12.86308635 27.21191837 12.97424232 39.55878548 7.0703125 48.2578125 C3.49504436 52.53892756 0.59127974 55.52719351 -5.1171875 56.2109375 C-9.81250071 56.27067431 -13.40418582 56.27135528 -17.75 54.375 C-24.92561116 47.37440375 -27.49625865 39.21024653 -27.69238281 29.32885742 C-27.69077148 28.58095947 -27.68916016 27.83306152 -27.6875 27.0625 C-27.68588867 26.27786377 -27.68427734 25.49322754 -27.68261719 24.68481445 C-27.51744808 16.81742145 -25.61373238 10.5569718 -21.4375 3.875 C-15.23724781 -1.96053148 -7.8887303 -2.67919142 0 0 Z " fill="#A62F27" transform="translate(349.3125,779.125)"/>
<path d="M0 0 C5.86154021 4.08944666 8.89193891 8.99809398 10.6875 15.875 C11.09649184 19.5315611 11.10779029 23.13643817 11.0625 26.8125 C11.07410156 27.75029297 11.08570313 28.68808594 11.09765625 29.65429688 C11.06600548 37.2452056 10.10272409 45.00543328 4.75 50.8125 C4.26660156 51.35777344 3.78320312 51.90304687 3.28515625 52.46484375 C-1.20846214 56.43109372 -5.61313336 56.29697749 -11.3984375 56.19140625 C-16.49462226 55.63806715 -19.00852492 53.17897508 -22.5 49.6875 C-26.76413721 43.07073537 -27.82404746 36.18834438 -27.6875 28.4375 C-27.67807373 27.60637695 -27.66864746 26.77525391 -27.65893555 25.91894531 C-27.43595391 16.84687947 -25.845079 8.59422411 -19.3125 1.875 C-13.50240739 -2.31367142 -6.60661071 -2.24375458 0 0 Z " fill="#A62E26" transform="translate(626.3125,779.125)"/>
<path d="M0 0 C5.54685868 3.70226652 8.55006123 9.08250636 10.1875 15.4375 C11.17151173 25.97566762 12.16196796 39.23265111 6.1875 48.4375 C2.60296342 52.49454367 -0.76655033 55.14581565 -6.30078125 55.67578125 C-12.35906353 55.83498922 -16.11206464 55.6793563 -20.8125 51.4375 C-26.49799993 45.75200007 -28.16725791 38.2291708 -28.22973633 30.39746094 C-28.21579834 29.60629883 -28.20186035 28.81513672 -28.1875 28 C-28.17807373 27.16887695 -28.16864746 26.33775391 -28.15893555 25.48144531 C-27.93595391 16.40937947 -26.345079 8.15672411 -19.8125 1.4375 C-14.08936083 -2.68848405 -6.33390641 -3.20844168 0 0 Z " fill="#A62F26" transform="translate(266.8125,779.5625)"/>
<path d="M0 0 C4.95 0 9.9 0 15 0 C15 22.77 15 45.54 15 69 C25.23 69 35.46 69 46 69 C46 73.62 46 78.24 46 83 C30.82 83 15.64 83 0 83 C0 55.61 0 28.22 0 0 Z " fill="#F6E4CD" transform="translate(168,765)"/>
<path d="M0 0 C4.95 0 9.9 0 15 0 C15 22.77 15 45.54 15 69 C24.9 69 34.8 69 45 69 C45 73.62 45 78.24 45 83 C30.15 83 15.3 83 0 83 C0 55.61 0 28.22 0 0 Z " fill="#F8E9D3" transform="translate(741,765)"/>
<path d="M0 0 C19.67298578 0 19.67298578 0 24.828125 4.6484375 C25.29734375 5.21820312 25.7665625 5.78796875 26.25 6.375 C26.72953125 6.93960938 27.2090625 7.50421875 27.703125 8.0859375 C31.61681569 13.86216773 31.36648703 19.58299888 31.375 26.3125 C31.39949219 27.31990234 31.42398438 28.32730469 31.44921875 29.36523438 C31.48066027 37.40902263 29.75391525 42.55760594 24.75 48.8125 C16.72282352 55.19775402 10.70198965 54 0 54 C0 36.18 0 18.36 0 0 Z " fill="#A52E25" transform="translate(814,780)"/>
<path d="M0 0 C16.49858357 -0.58923513 16.49858357 -0.58923513 23 4 C25.63125281 8.15598539 25.54645952 12.22701759 25 17 C23.25410024 21.2269152 21.07549148 23.01195538 17 25 C13 26 13 26 0 26 C0 17.42 0 8.84 0 0 Z " fill="#A63128" transform="translate(683,779)"/>
<path d="M0 0 C17.82 0 35.64 0 54 0 C54 3.63 54 7.26 54 11 C35.85 10.67 17.7 10.34 -1 10 C-0.67 6.7 -0.34 3.4 0 0 Z " fill="#A42921" transform="translate(595,372)"/>
<path d="M0 0 C0.66 0 1.32 0 2 0 C2 26.07 2 52.14 2 79 C15.86 79 29.72 79 44 79 C44 75.7 44 72.4 44 69 C43.16227051 69.00523682 42.32454102 69.01047363 41.46142578 69.01586914 C38.35661064 69.03290014 35.25181929 69.04544482 32.14697266 69.05493164 C30.14093449 69.06244036 28.13491798 69.0751447 26.12890625 69.08789062 C24.24365234 69.09272461 24.24365234 69.09272461 22.3203125 69.09765625 C20.57645264 69.10551147 20.57645264 69.10551147 18.79736328 69.11352539 C16 69 16 69 14 68 C14 46.22 14 24.44 14 2 C14.33 2 14.66 2 15 2 C15 23.45 15 44.9 15 67 C25.23 67 35.46 67 46 67 C46 71.62 46 76.24 46 81 C30.82 81 15.64 81 0 81 C0 54.27 0 27.54 0 0 Z " fill="#FCF2E2" transform="translate(168,767)"/>
<path d="M0 0 C2.75569447 2.18159145 4.43588747 3.87177494 6 7 C6.59873168 12.26883876 5.25400021 14.8846468 2 19 C-1.49474739 20.7473737 -5.18678856 20.55225821 -9 20 C-12.0625 18.125 -12.0625 18.125 -14 15 C-15.00187438 9.94922834 -14.79376084 6.28025942 -12.0625 1.875 C-7.96645433 -0.63278306 -4.68747351 -1.08695038 0 0 Z " fill="#A62F26" transform="translate(528,506)"/>
<path d="M0 0 C32 0 32 0 35 2 C24.11 2 13.22 2 2 2 C2 28.07 2 54.14 2 81 C5.96 81 9.92 81 14 81 C14 71.76 14 62.52 14 53 C14.33 53 14.66 53 15 53 C15 62.9 15 72.8 15 83 C10.05 83 5.1 83 0 83 C0 55.61 0 28.22 0 0 Z " fill="#F0D8CA" transform="translate(668,765)"/>
<path d="M0 0 C0.33 0 0.66 0 1 0 C2.48238659 15.71093237 3.28207255 31.21960788 3 47 C2.67 47 2.34 47 2 47 C1.34 38.75 0.68 30.5 0 22 C0 23.73082583 0.02226328 25.46258153 0.10546875 27.19140625 C0.13253906 27.97386719 0.15960937 28.75632812 0.1875 29.5625 C0.22230469 30.34753906 0.25710938 31.13257813 0.29296875 31.94140625 C0.19628906 32.62074219 0.09960938 33.30007813 0 34 C-0.99 34.66 -1.98 35.32 -3 36 C-3.66 36.99 -4.32 37.98 -5 39 C-5.30701271 31.18052928 -4.37735626 23.82305117 -3.0625 16.125 C-2.88009766 15.01125 -2.69769531 13.8975 -2.50976562 12.75 C-1.0588427 3.99170159 -1.0588427 3.99170159 0 0 Z " fill="#A22820" transform="translate(665,403)"/>
<path d="M0 0 C6.27 0 12.54 0 19 0 C19 2.31 19 4.62 19 7 C12.73 7 6.46 7 0 7 C0 4.69 0 2.38 0 0 Z " fill="#A1221B" transform="translate(518,585)"/>
<path d="M0 0 C2.41491018 4.39765232 2.91591397 8.7120468 3.625 13.625 C3.7590625 14.47707031 3.893125 15.32914062 4.03125 16.20703125 C4.91598991 22.17451168 5.15986833 27.97183354 5 34 C4.67 34 4.34 34 4 34 C3.67 31.69 3.34 29.38 3 27 C-0.56383366 30.56383366 -0.22158003 34.87971476 -0.5625 39.75 C-0.64628906 40.92046875 -0.73007812 42.0909375 -0.81640625 43.296875 C-0.87699219 44.18890625 -0.93757813 45.0809375 -1 46 C-1.33 46 -1.66 46 -2 46 C-2.27380247 30.54537149 -1.52306778 15.38055415 0 0 Z " fill="#9E1E17" transform="translate(358,403)"/>
<path d="M0 0 C0.33 0 0.66 0 1 0 C2.15202666 16.33409227 2.10589013 32.63590227 2 49 C1.01 48.67 0.02 48.34 -1 48 C-1.21412301 31.98835743 -0.57012905 15.99848825 0 0 Z " fill="#F1DAC8" transform="translate(274,620)"/>
<path d="M0 0 C18.15 0 36.3 0 55 0 C55 0.33 55 0.66 55 1 C42.79 1.33 30.58 1.66 18 2 C18 2.33 18 2.66 18 3 C12.39 3 6.78 3 1 3 C0.67 2.01 0.34 1.02 0 0 Z " fill="#F5E0C9" transform="translate(687,693)"/>
<path d="M0 0 C0.99 0.495 0.99 0.495 2 1 C4.10528933 1.08543895 6.21331157 1.10714725 8.3203125 1.09765625 C10.20556641 1.09282227 10.20556641 1.09282227 12.12890625 1.08789062 C13.44761719 1.07951172 14.76632812 1.07113281 16.125 1.0625 C17.46484211 1.05748489 18.804686 1.05292201 20.14453125 1.04882812 C23.42973206 1.03701086 26.71484397 1.02053617 30 1 C30 1.33 30 1.66 30 2 C21.09 2 12.18 2 3 2 C3.03933713 7.04046136 3.03933713 7.04046136 3.09008789 12.08081055 C3.10488141 15.85506693 2.91811717 19.33476057 2 23 C1.34 23 0.68 23 0 23 C0 15.41 0 7.82 0 0 Z " fill="#AA382D" transform="translate(380,570)"/>
<path d="M0 0 C0 3.3 0 6.6 0 10 C-0.66 9.34 -1.32 8.68 -2 8 C-4.34564438 7.70745438 -4.34564438 7.70745438 -7.09228516 7.77294922 C-8.15323395 7.77310028 -9.21418274 7.77325134 -10.30728149 7.77340698 C-12.03076309 7.78889084 -12.03076309 7.78889084 -13.7890625 7.8046875 C-14.96262299 7.8075174 -16.13618347 7.81034729 -17.3453064 7.81326294 C-21.10530662 7.82448645 -24.86507139 7.84959508 -28.625 7.875 C-31.1692674 7.88502699 -33.71353852 7.89415332 -36.2578125 7.90234375 C-42.5052891 7.92443286 -48.75262773 7.95793176 -55 8 C-55 7.67 -55 7.34 -55 7 C-37.84 7 -20.68 7 -3 7 C-3 5.02 -3 3.04 -3 1 C-1 0 -1 0 0 0 Z " fill="#F3DEC5" transform="translate(341,686)"/>
<path d="M0 0 C8.58 0 17.16 0 26 0 C26 3.63 26 7.26 26 11 C25.34 11 24.68 11 24 11 C24 8.03 24 5.06 24 2 C22.53240234 2.01740234 22.53240234 2.01740234 21.03515625 2.03515625 C13.9447987 2.0839591 7.03540778 1.98742565 0 1 C0 0.67 0 0.34 0 0 Z " fill="#9F211A" transform="translate(623,372)"/>
<path d="M0 0 C0.95310059 0.01047363 1.90620117 0.02094727 2.88818359 0.03173828 C4.43505859 0.04140625 4.43505859 0.04140625 6.01318359 0.05126953 C7.63353516 0.07640625 7.63353516 0.07640625 9.28662109 0.10205078 C10.37458984 0.11107422 11.46255859 0.12009766 12.58349609 0.12939453 C15.27642261 0.15301669 17.96891365 0.18595522 20.66162109 0.22705078 C20.66162109 0.55705078 20.66162109 0.88705078 20.66162109 1.22705078 C23.63162109 1.72205078 23.63162109 1.72205078 26.66162109 2.22705078 C26.66162109 2.55705078 26.66162109 2.88705078 26.66162109 3.22705078 C22.43246892 3.25613711 18.20334258 3.27387871 13.97412109 3.28955078 C12.7759375 3.29792969 11.57775391 3.30630859 10.34326172 3.31494141 C9.18632813 3.31816406 8.02939453 3.32138672 6.83740234 3.32470703 C5.77432861 3.32994385 4.71125488 3.33518066 3.6159668 3.34057617 C0.8481702 3.23421922 -1.64630788 2.85599866 -4.33837891 2.22705078 C-2.33837891 0.22705078 -2.33837891 0.22705078 0 0 Z " fill="#F4DEC9" transform="translate(617.33837890625,381.77294921875)"/>
<path d="M0 0 C0.66 0.33 1.32 0.66 2 1 C2 5.29 2 9.58 2 14 C1.34 14 0.68 14 0 14 C0.16371094 14.55171875 0.32742188 15.1034375 0.49609375 15.671875 C1.05760414 18.26614007 1.09739008 20.59835411 1.0625 23.25 C1.05347656 24.14203125 1.04445313 25.0340625 1.03515625 25.953125 C1.02355469 26.62859375 1.01195312 27.3040625 1 28 C0.01 27.34 -0.98 26.68 -2 26 C-2.26464844 23.92456055 -2.26464844 23.92456055 -2.109375 21.38671875 C-2.05910156 20.46826172 -2.00882812 19.54980469 -1.95703125 18.60351562 C-1.88871094 17.64123047 -1.82039063 16.67894531 -1.75 15.6875 C-1.67072266 14.26147461 -1.67072266 14.26147461 -1.58984375 12.80664062 C-1.32752725 8.44181611 -0.92705179 4.28020765 0 0 Z " fill="#F2DECD" transform="translate(285,444)"/>
<path d="M0 0 C5.28 0 10.56 0 16 0 C16 1.98 16 3.96 16 6 C15.34 6 14.68 6 14 6 C14 5.01 14 4.02 14 3 C10.37 3 6.74 3 3 3 C2.67 3.66 2.34 4.32 2 5 C1.34 4.67 0.68 4.34 0 4 C0 2.68 0 1.36 0 0 Z " fill="#F0DBC8" transform="translate(478,765)"/>
<path d="M0 0 C2.92987626 5.27377728 3.11710798 10.02749309 3 16 C2.34 16.33 1.68 16.66 1 17 C0.67 16.34 0.34 15.68 0 15 C-0.66 15 -1.32 15 -2 15 C-2.22577402 9.5814234 -1.46670113 5.22512279 0 0 Z " fill="#A42F24" transform="translate(527,790)"/>
<path d="M0 0 C0.33 0 0.66 0 1 0 C1.02922646 3.37498158 1.04687468 6.74993021 1.0625 10.125 C1.07087891 11.07632812 1.07925781 12.02765625 1.08789062 13.0078125 C1.10449608 17.79018487 1.00537055 22.29771569 0 27 C-2 25 -2 25 -2.265625 23.14453125 C-2.21320092 15.32023682 -1.15406837 7.72813638 0 0 Z " fill="#F9EFDF" transform="translate(292,374)"/>
<path d="M0 0 C0.33 0 0.66 0 1 0 C1.70132913 6.70019789 2.11044961 13.26257354 2 20 C1.01 19.67 0.02 19.34 -1 19 C-2.05268874 12.18597425 -1.93833398 6.63198569 0 0 Z " fill="#A73025" transform="translate(665,403)"/>
<path d="M0 0 C0 3 0 3 -1.19335938 4.53393555 C-1.73798828 5.062854 -2.28261719 5.59177246 -2.84375 6.13671875 C-3.72353516 7.00200195 -3.72353516 7.00200195 -4.62109375 7.88476562 C-5.24113281 8.47966797 -5.86117188 9.07457031 -6.5 9.6875 C-7.12003906 10.29400391 -7.74007813 10.90050781 -8.37890625 11.52539062 C-9.91264707 13.02373743 -11.45548198 14.51276493 -13 16 C-13.33 15.34 -13.66 14.68 -14 14 C-12.78515625 11.3984375 -12.78515625 11.3984375 -11.0625 8.375 C-10.21365234 6.87066406 -10.21365234 6.87066406 -9.34765625 5.3359375 C-8.90292969 4.56507813 -8.45820313 3.79421875 -8 3 C-7 5 -7 5 -7 7 C-4.69 4.69 -2.38 2.38 0 0 Z " fill="#98160E" transform="translate(481,281)"/>
<path d="M0 0 C0.99 0 1.98 0 3 0 C2.38487182 5.00890086 1.7282448 10.00632136 1 15 C0.01 15 -0.98 15 -2 15 C-2.22577402 9.5814234 -1.46670113 5.22512279 0 0 Z " fill="#F2DECB" transform="translate(308,787)"/>
<path d="M0 0 C4.04268691 5.14523789 5.47960538 8.28552473 5 15 C3.984375 17.21875 3.984375 17.21875 3 19 C2.49356447 16.77228658 1.9951038 14.54275924 1.5 12.3125 C1.2215625 11.07113281 0.943125 9.82976563 0.65625 8.55078125 C0.10645874 5.57601782 -0.13795705 3.00631398 0 0 Z " fill="#9D1B16" transform="translate(546,810)"/>
<path d="M0 0 C2.33327222 2.14543647 3.80481335 4.2034808 5.26171875 7.01171875 C5.85629883 8.14770508 5.85629883 8.14770508 6.46289062 9.30664062 C6.86701172 10.09232422 7.27113281 10.87800781 7.6875 11.6875 C8.10322266 12.48478516 8.51894531 13.28207031 8.94726562 14.10351562 C9.96987975 16.06646457 10.9872368 18.03195562 12 20 C11.34 20.33 10.68 20.66 10 21 C7.02997802 18.54650358 6.72025866 16.69132565 6 13 C4.66846734 10.69495956 4.66846734 10.69495956 3 9 C2.34 9 1.68 9 1 9 C0.67 8.01 0.34 7.02 0 6 C0.66 6 1.32 6 2 6 C1.34 4.02 0.68 2.04 0 0 Z " fill="#991B13" transform="translate(546,276)"/>
<path d="M0 0 C2 2 2 2 2.22705078 3.87939453 C2.21657715 4.62302246 2.20610352 5.36665039 2.1953125 6.1328125 C2.18886719 6.93847656 2.18242188 7.74414062 2.17578125 8.57421875 C2.15902344 9.41597656 2.14226563 10.25773438 2.125 11.125 C2.11597656 11.97449219 2.10695313 12.82398438 2.09765625 13.69921875 C2.07405647 15.79959884 2.03818483 17.89983444 2 20 C-1.38811921 16.45139093 -1.35003669 13.66675766 -1.25 8.875 C-1.23453125 7.63492188 -1.2190625 6.39484375 -1.203125 5.1171875 C-1 2 -1 2 0 0 Z " fill="#AC3C2F" transform="translate(749,590)"/>
<path d="M0 0 C4.95 0 9.9 0 15 0 C14.67 1.98 14.34 3.96 14 6 C13.67 4.68 13.34 3.36 13 2 C9.04 2 5.08 2 1 2 C0.67 2.66 0.34 3.32 0 4 C0 2.68 0 1.36 0 0 Z " fill="#F0DBCD" transform="translate(562,765)"/>
<path d="M0 0 C0.33 0 0.66 0 1 0 C1.33 4.62 1.66 9.24 2 14 C2.66 13.34 3.32 12.68 4 12 C3.71758359 13.46015291 3.42373386 14.91809793 3.125 16.375 C2.96257813 17.18710937 2.80015625 17.99921875 2.6328125 18.8359375 C2 21 2 21 0 23 C0 15.41 0 7.82 0 0 Z " fill="#FCF7F0" transform="translate(536,352)"/>
<path d="M0 0 C1.3274855 3.98245651 -0.00092171 6.44789543 -1.4375 10.1875 C-1.68048828 10.84169922 -1.92347656 11.49589844 -2.17382812 12.16992188 C-2.7743293 13.78303286 -3.38609203 15.3919435 -4 17 C-4.66 17 -5.32 17 -6 17 C-6.33 15.02 -6.66 13.04 -7 11 C-5.68 10.67 -4.36 10.34 -3 10 C-2.814375 8.9171875 -2.814375 8.9171875 -2.625 7.8125 C-2.0095069 5.04278106 -1.11555626 2.6029646 0 0 Z " fill="#A0251C" transform="translate(434,797)"/>
<path d="M0 0 C0.33 0 0.66 0 1 0 C1 2.97 1 5.94 1 9 C-1.97 9 -4.94 9 -8 9 C-8 8.67 -8 8.34 -8 8 C-10.64 7.67 -13.28 7.34 -16 7 C-16 6.67 -16 6.34 -16 6 C-11.05 6 -6.1 6 -1 6 C-0.67 4.02 -0.34 2.04 0 0 Z " fill="#AC3C32" transform="translate(646,374)"/>
<path d="M0 0 C0.33 0 0.66 0 1 0 C1 6.6 1 13.2 1 20 C0.34 20 -0.32 20 -1 20 C-1.98248524 15.9472484 -2.08159574 12.16138263 -2 8 C-1.67 8 -1.34 8 -1 8 C-0.67 5.36 -0.34 2.72 0 0 Z " fill="#F4E1CA" transform="translate(277,596)"/>
<path d="M0 0 C0.99 0 1.98 0 3 0 C3.08086147 1.79093191 3.13912702 3.58289628 3.1875 5.375 C3.22230469 6.37273438 3.25710938 7.37046875 3.29296875 8.3984375 C3.19628906 9.25695312 3.09960938 10.11546875 3 11 C2.01 11.66 1.02 12.32 0 13 C0 8.71 0 4.42 0 0 Z " fill="#AC3D31" transform="translate(367,556)"/>
<path d="M0 0 C0.12117187 0.58007812 0.24234375 1.16015625 0.3671875 1.7578125 C1.33735474 6.28028442 2.43397783 10.63750966 4 15 C1.50447597 12.72402354 -0.06622986 10.39278822 -1.6875 7.4375 C-2.12449219 6.65246094 -2.56148437 5.86742187 -3.01171875 5.05859375 C-4 3 -4 3 -4 1 C-2 0 -2 0 0 0 Z " fill="#9F221A" transform="translate(714,813)"/>
<path d="M0 0 C0.33 0 0.66 0 1 0 C1 2.31 1 4.62 1 7 C1.99 7 2.98 7 4 7 C4.33 8.32 4.66 9.64 5 11 C7.31 11.33 9.62 11.66 12 12 C12 12.33 12 12.66 12 13 C7.74981621 13.41668469 5.64657432 13.44022082 2.0625 11 C-0.70834355 6.96968211 -0.40691598 4.80160858 0 0 Z " fill="#9A1713" transform="translate(514,513)"/>
<path d="M0 0 C0.99 0.33 1.98 0.66 3 1 C3 4.63 3 8.26 3 12 C2.01 12.495 2.01 12.495 1 13 C-0.32229189 10.35541621 -0.09677194 8.32238699 -0.0625 5.375 C-0.05347656 4.37210937 -0.04445313 3.36921875 -0.03515625 2.3359375 C-0.02355469 1.56507813 -0.01195312 0.79421875 0 0 Z " fill="#AC3E33" transform="translate(667,458)"/>
<path d="M0 0 C0.33 0 0.66 0 1 0 C1 1.98 1 3.96 1 6 C1.99 6.33 2.98 6.66 4 7 C4 10.3 4 13.6 4 17 C3.67 17 3.34 17 3 17 C2.67 14.36 2.34 11.72 2 9 C1.34 9 0.68 9 0 9 C-0.84454356 5.62182575 -1.10844919 3.32534757 0 0 Z " fill="#991610" transform="translate(663,416)"/>
<path d="M0 0 C0 3.99711412 -1.32141544 5.1042329 -4 8 C-6.75 9.8125 -6.75 9.8125 -9 11 C-7.59155282 7.78475695 -5.89655214 5.67816132 -3.375 3.25 C-2.74335938 2.63640625 -2.11171875 2.0228125 -1.4609375 1.390625 C-0.73777344 0.70226562 -0.73777344 0.70226562 0 0 Z " fill="#9B1813" transform="translate(500,246)"/>
<path d="M0 0 C2.20914 3.31371 2.22481553 4.3446021 2.125 8.1875 C2.10695313 9.08855469 2.08890625 9.98960937 2.0703125 10.91796875 C2.03550781 11.94857422 2.03550781 11.94857422 2 13 C1.01 12.67 0.02 12.34 -1 12 C-0.67 8.04 -0.34 4.08 0 0 Z " fill="#AB3B31" transform="translate(659,439)"/>
<path d="M0 0 C0.33 0 0.66 0 1 0 C1.33 3.96 1.66 7.92 2 12 C1.01 11.67 0.02 11.34 -1 11 C-0.67 7.37 -0.34 3.74 0 0 Z " fill="#F2DDCC" transform="translate(296,338)"/>
<path d="M0 0 C0.66 0 1.32 0 2 0 C3.98362069 2.91708924 3.9876191 4.12380904 3.625 7.75 C3.41875 8.8225 3.2125 9.895 3 11 C0.43383368 7.15075052 0.44902324 4.5650696 0 0 Z " fill="#9F2A20" transform="translate(547,818)"/>
<path d="M0 0 C0.33 0 0.66 0 1 0 C1 3.63 1 7.26 1 11 C0.01 10.67 -0.98 10.34 -2 10 C-2.25 3.375 -2.25 3.375 0 0 Z " fill="#F1D8C1" transform="translate(283,489)"/>
<path d="M0 0 C2 2 2 2 2.3125 5.4375 C1.9773321 9.25841401 1.71566987 9.65692863 -1 12 C-1.02698189 10.37509046 -1.04638757 8.75005367 -1.0625 7.125 C-1.07410156 6.22007812 -1.08570313 5.31515625 -1.09765625 4.3828125 C-1 2 -1 2 0 0 Z " fill="#F4DDC8" transform="translate(352,467)"/>
<path d="M0 0 C1.231394 3.69418201 0.64432764 6.2056261 0 10 C-0.99 10 -1.98 10 -3 10 C-3.36923077 3.47692308 -3.36923077 3.47692308 -1.5 1.0625 C-1.005 0.711875 -0.51 0.36125 0 0 Z " fill="#B04439" transform="translate(360,412)"/>
<path d="M0 0 C0.66 0.33 1.32 0.66 2 1 C2 3.64 2 6.28 2 9 C1.01 9.33 0.02 9.66 -1 10 C-1.02689216 8.52093108 -1.04634621 7.04172517 -1.0625 5.5625 C-1.07410156 4.73878906 -1.08570313 3.91507813 -1.09765625 3.06640625 C-1 1 -1 1 0 0 Z " fill="#F2DBC8" transform="translate(590,199)"/>
<path d="M0 0 C2.02045442 0.60183749 4.02111039 1.27306096 6 2 C6.33 2.66 6.66 3.32 7 4 C5.35 3.67 3.7 3.34 2 3 C1.67 4.32 1.34 5.64 1 7 C0.67 4.69 0.34 2.38 0 0 Z " fill="#FAF2E8" transform="translate(605,213)"/>
<path d="M0 0 C0.66 0.33 1.32 0.66 2 1 C2.1875 4.375 2.1875 4.375 2 8 C1.01 8.66 0.02 9.32 -1 10 C-1.02689216 8.52093108 -1.04634621 7.04172517 -1.0625 5.5625 C-1.07410156 4.73878906 -1.08570313 3.91507813 -1.09765625 3.06640625 C-1 1 -1 1 0 0 Z " fill="#AC3C32" transform="translate(366,586)"/>
<path d="M0 0 C2.34058637 2.12780579 3.70700306 4.11562221 5 7 C3.02 7.99 3.02 7.99 1 9 C0.67 8.01 0.34 7.02 0 6 C0.66 6 1.32 6 2 6 C1.34 4.02 0.68 2.04 0 0 Z " fill="#9F231C" transform="translate(546,276)"/>
<path d="M0 0 C1 2 1 2 0.25 4.4375 C-0.93098981 6.85852911 -1.9831559 8.25818009 -4 10 C-4.66 9.67 -5.32 9.34 -6 9 C-4.02 6.03 -2.04 3.06 0 0 Z " fill="#9B1A13" transform="translate(487,261)"/>
<path d="M0 0 C0.33 0 0.66 0 1 0 C1 2.97 1 5.94 1 9 C0.01 8.67 -0.98 8.34 -2 8 C-1.125 1.125 -1.125 1.125 0 0 Z " fill="#F3DEC8" transform="translate(308,809)"/>
<path d="M0 0 C2.475 0.495 2.475 0.495 5 1 C4.67 2.65 4.34 4.3 4 6 C2.68 5.34 1.36 4.68 0 4 C0 2.68 0 1.36 0 0 Z " fill="#9F2019" transform="translate(525,801)"/>
<path d="M0 0 C0.66 0.33 1.32 0.66 2 1 C1.67 3.31 1.34 5.62 1 8 C0.34 8 -0.32 8 -1 8 C-1.125 2.25 -1.125 2.25 0 0 Z " fill="#A3251E" transform="translate(576,771)"/>
<path d="M0 0 C0.33 1.32 0.66 2.64 1 4 C0.01 4.33 -0.98 4.66 -2 5 C-3.20882096 7.00016466 -3.20882096 7.00016466 -4 9 C-4 5.00095031 -2.27413033 3.19799578 0 0 Z " fill="#F9EEE1" transform="translate(520,468)"/>
<path d="M0 0 C2.1519437 3.22791555 2.20086443 4.28400809 2 8 C1.01 8.33 0.02 8.66 -1 9 C-1.09765625 2.84765625 -1.09765625 2.84765625 -1 1 C-0.67 0.67 -0.34 0.34 0 0 Z " fill="#F3DFCB" transform="translate(356,407)"/>
<path d="M0 0 C0.66 0.33 1.32 0.66 2 1 C-1.36423277 3.96052484 -4.69159287 4.92289822 -9 6 C-6.45368965 3.02930459 -3.57769851 1.5224249 0 0 Z " fill="#FBF5E9" transform="translate(387,229)"/>
<path d="M0 0 C0.99 0.33 1.98 0.66 3 1 C2.67 3.31 2.34 5.62 2 8 C1.01 8 0.02 8 -1 8 C-0.67 5.36 -0.34 2.72 0 0 Z " fill="#F2DBC3" transform="translate(607,216)"/>
<path d="M0 0 C2 2 2 2 2.3125 4.5 C2.209375 5.325 2.10625 6.15 2 7 C1.01 7.66 0.02 8.32 -1 9 C-1.09765625 2.84765625 -1.09765625 2.84765625 -1 1 C-0.67 0.67 -0.34 0.34 0 0 Z " fill="#F4E0CB" transform="translate(487,349)"/>
</svg>
